<svg width="41" height="40" viewBox="0 0 41 40" fill="none" xmlns="http://www.w3.org/2000/svg">
<path d="M27.3331 6.66659C27.3331 8.50753 25.8408 9.99992 23.9998 9.99992C22.1588 9.99992 20.6664 8.50753 20.6664 6.66659C20.6664 4.82564 22.1588 3.33325 23.9998 3.33325C25.8408 3.33325 27.3331 4.82564 27.3331 6.66659Z" fill="#30736B"/>
<path fill-rule="evenodd" clip-rule="evenodd" d="M18.8648 14.1765C17.354 12.9738 15.1262 13.4034 14.171 15.0817C13.2464 16.7062 13.9337 18.7739 15.647 19.5216L20.7981 21.7692C23.0151 22.7367 24.0355 25.3121 23.0826 27.5354L21.8155 30.4922C21.5435 31.1269 20.8086 31.4207 20.1741 31.1489C19.5395 30.8769 19.2456 30.1421 19.5175 29.5076L20.7848 26.5506C21.1963 25.5906 20.7556 24.4784 19.7983 24.0606L14.6471 21.8129C11.5725 20.4712 10.3389 16.7606 11.9983 13.845C13.7126 10.8332 17.7105 10.0622 20.4218 12.2206L24.019 15.0842C24.2893 15.2994 24.6246 15.4166 24.9703 15.4166H31.4998C32.1901 15.4166 32.7498 15.9762 32.7498 16.6666C32.7498 17.3569 32.1901 17.9166 31.4998 17.9166H24.9703C24.0591 17.9166 23.1748 17.6076 22.462 17.0401L18.8648 14.1765Z" fill="#30736B"/>
<g opacity="0.5">
<path fill-rule="evenodd" clip-rule="evenodd" d="M30.6666 23.75C27.2148 23.75 24.4166 26.5482 24.4166 30C24.4166 33.4518 27.2148 36.25 30.6666 36.25C34.1185 36.25 36.9166 33.4518 36.9166 30C36.9166 26.5482 34.1185 23.75 30.6666 23.75ZM30.6666 26.25C28.5956 26.25 26.9166 27.929 26.9166 30C26.9166 32.071 28.5956 33.75 30.6666 33.75C32.7376 33.75 34.4166 32.071 34.4166 30C34.4166 27.929 32.7376 26.25 30.6666 26.25Z" fill="#30736B"/>
<path fill-rule="evenodd" clip-rule="evenodd" d="M10.6666 23.75C7.21484 23.75 4.41663 26.5482 4.41663 30C4.41663 33.4518 7.21484 36.25 10.6666 36.25C14.1184 36.25 16.9166 33.4518 16.9166 30C16.9166 26.5482 14.1184 23.75 10.6666 23.75ZM10.6666 26.25C8.59556 26.25 6.91663 27.929 6.91663 30C6.91663 32.071 8.59556 33.75 10.6666 33.75C12.7377 33.75 14.4166 32.071 14.4166 30C14.4166 27.929 12.7377 26.25 10.6666 26.25Z" fill="#30736B"/>
</g>
</svg>
