<svg width="40" height="41" viewBox="0 0 40 41" fill="none" xmlns="http://www.w3.org/2000/svg">
<path d="M26.6665 6.7352C26.6665 8.57615 25.1741 10.0685 23.3332 10.0685C21.4922 10.0685 19.9998 8.57615 19.9998 6.7352C19.9998 4.89425 21.4922 3.40187 23.3332 3.40187C25.1741 3.40187 26.6665 4.89425 26.6665 6.7352Z" fill="white"/>
<path fill-rule="evenodd" clip-rule="evenodd" d="M18.1982 14.2452C16.6873 13.0425 14.4596 13.4721 13.5044 15.1503C12.5797 16.7749 13.2671 18.8426 14.9804 19.5902L20.1315 21.8379C22.3485 22.8054 23.3688 25.3807 22.416 27.604L21.1488 30.5609C20.8768 31.1956 20.142 31.4894 19.5075 31.2175C18.8728 30.9455 18.579 30.2107 18.8508 29.5762L20.1182 26.6192C20.5297 25.6592 20.089 24.5471 19.1317 24.1292L13.9805 21.8815C10.9059 20.5399 9.67227 16.8292 11.3317 13.9137C13.0459 10.9018 17.0438 10.1308 19.7552 12.2892L23.3523 15.1528C23.6227 15.368 23.958 15.4852 24.3037 15.4852H30.8332C31.5235 15.4852 32.0832 16.0449 32.0832 16.7352C32.0832 17.4255 31.5235 17.9852 30.8332 17.9852H24.3037C23.3925 17.9852 22.5082 17.6762 21.7953 17.1087L18.1982 14.2452Z" fill="white"/>
<g opacity="0.5">
<path fill-rule="evenodd" clip-rule="evenodd" d="M30 23.8185C26.5482 23.8185 23.75 26.6167 23.75 30.0685C23.75 33.5204 26.5482 36.3185 30 36.3185C33.4518 36.3185 36.25 33.5204 36.25 30.0685C36.25 26.6167 33.4518 23.8185 30 23.8185ZM30 26.3185C27.929 26.3185 26.25 27.9975 26.25 30.0685C26.25 32.1395 27.929 33.8185 30 33.8185C32.071 33.8185 33.75 32.1395 33.75 30.0685C33.75 27.9975 32.071 26.3185 30 26.3185Z" fill="white"/>
<path fill-rule="evenodd" clip-rule="evenodd" d="M10 23.8185C6.54822 23.8185 3.75 26.6167 3.75 30.0685C3.75 33.5204 6.54822 36.3185 10 36.3185C13.4518 36.3185 16.25 33.5204 16.25 30.0685C16.25 26.6167 13.4518 23.8185 10 23.8185ZM10 26.3185C7.92893 26.3185 6.25 27.9975 6.25 30.0685C6.25 32.1395 7.92893 33.8185 10 33.8185C12.0711 33.8185 13.75 32.1395 13.75 30.0685C13.75 27.9975 12.0711 26.3185 10 26.3185Z" fill="white"/>
</g>
</svg>
