<svg width="40" height="41" viewBox="0 0 40 41" fill="none" xmlns="http://www.w3.org/2000/svg">
<path d="M24.1667 33.371C26.788 33.3044 28.6285 33.0935 30 32.427V35.0684C30 35.9889 29.2538 36.735 28.3333 36.735H25.8333C24.9128 36.735 24.1667 35.9889 24.1667 35.0684V33.371Z" fill="white"/>
<path d="M10 32.4269C11.3715 33.0935 13.212 33.3044 15.8333 33.371V35.0684C15.8333 35.9889 15.0871 36.735 14.1667 36.735H11.6667C10.7462 36.735 10 35.9889 10 35.0684V32.4269Z" fill="white"/>
<path opacity="0.5" fill-rule="evenodd" clip-rule="evenodd" d="M8.61927 5.35449C10.5719 3.40187 13.7146 3.40187 20 3.40187C26.2853 3.40187 29.4282 3.40187 31.3807 5.35449C33.1525 7.12632 33.3167 9.87804 33.3318 15.0685L33.3333 21.7352C33.3182 26.9257 33.1525 29.6774 31.3807 31.4492C30.977 31.8529 30.5227 32.173 30 32.427C28.6285 33.0937 26.788 33.3044 24.1667 33.371C22.9548 33.4017 21.5763 33.4019 20 33.4019C18.4237 33.4019 17.0452 33.4019 15.8333 33.371C13.212 33.3044 11.3715 33.0935 9.99999 32.4269C9.47741 32.1729 9.02291 31.8529 8.61927 31.4492C6.84746 29.6774 6.68184 26.9257 6.66666 21.7352L6.66821 15.0685C6.68339 9.87804 6.84746 7.12632 8.61927 5.35449Z" fill="white"/>
<path d="M29.5833 26.7352C29.5833 26.0449 29.0237 25.4852 28.3333 25.4852H25.8333C25.143 25.4852 24.5833 26.0449 24.5833 26.7352C24.5833 27.4255 25.143 27.9852 25.8333 27.9852H28.3333C29.0237 27.9852 29.5833 27.4255 29.5833 26.7352Z" fill="white"/>
<path d="M10.4167 26.7352C10.4167 26.0449 10.9763 25.4852 11.6667 25.4852H14.1667C14.857 25.4852 15.4167 26.0449 15.4167 26.7352C15.4167 27.4255 14.857 27.9852 14.1667 27.9852H11.6667C10.9763 27.9852 10.4167 27.4255 10.4167 26.7352Z" fill="white"/>
<path d="M9.16666 15.9019C9.16666 18.2589 9.16666 19.4374 9.89889 20.1697C10.6311 20.9019 11.8096 20.9019 14.1667 20.9019H25.8333C28.1903 20.9019 29.3688 20.9019 30.1012 20.1697C30.8333 19.4374 30.8333 18.2589 30.8333 15.9019V11.7352C30.8333 9.37818 30.8333 8.19968 30.1012 7.46745C29.3688 6.73521 28.1903 6.73521 25.8333 6.73521H14.1667C11.8096 6.73521 10.6311 6.73521 9.89889 7.46745C9.16666 8.19968 9.16666 9.3782 9.16666 11.7352V15.9019Z" fill="white"/>
<path d="M4.00001 19.7352L6.66668 21.7352L6.66823 15.0685H5.00001C4.07954 15.0685 3.33334 15.8147 3.33334 16.7352V18.4019C3.33334 18.9265 3.58033 19.4204 4.00001 19.7352Z" fill="white"/>
<path d="M35 15.0685H33.3317L33.3333 21.7352L36 19.7352C36.4197 19.4204 36.6667 18.9265 36.6667 18.4019V16.7352C36.6667 15.8147 35.9203 15.0685 35 15.0685Z" fill="white"/>
</svg>
