<svg width="40" height="40" viewBox="0 0 40 40" fill="none" xmlns="http://www.w3.org/2000/svg">
<path opacity="0.5" d="M32.8608 33.9374C35.2383 32.6411 36.6666 30.9789 36.6666 29.1667C36.6666 27.2459 35.0619 25.4936 32.4228 24.1667C29.3709 22.6324 24.9361 21.6667 19.9999 21.6667C15.0638 21.6667 10.6289 22.6324 7.5771 24.1667C4.938 25.4936 3.33325 27.2459 3.33325 29.1667C3.33325 31.0876 4.938 32.8399 7.5771 34.1667C10.6289 35.7011 15.0638 36.6667 19.9999 36.6667C25.1776 36.6667 29.8038 35.6042 32.8608 33.9374Z" fill="#1E4843"/>
<path fill-rule="evenodd" clip-rule="evenodd" d="M8.33325 14.191C8.33325 8.19442 13.5566 3.33325 19.9999 3.33325C26.4433 3.33325 31.6666 8.19442 31.6666 14.191C31.6666 20.1406 27.9429 27.0831 22.1334 29.5659C20.7791 30.1446 19.2208 30.1446 17.8664 29.5659C12.0569 27.0831 8.33325 20.1406 8.33325 14.191ZM19.9999 18.3333C21.8409 18.3333 23.3333 16.8409 23.3333 14.9999C23.3333 13.159 21.8409 11.6666 19.9999 11.6666C18.1589 11.6666 16.6666 13.159 16.6666 14.9999C16.6666 16.8409 18.1589 18.3333 19.9999 18.3333Z" fill="#1E4843"/>
</svg>
