<svg width="41" height="40" viewBox="0 0 41 40" fill="none" xmlns="http://www.w3.org/2000/svg">
<path opacity="0.9" d="M33.194 33.9373C35.5715 32.641 36.9998 30.9788 36.9998 29.1667C36.9998 27.2458 35.3952 25.4935 32.756 24.1667C29.7042 22.6323 25.2693 21.6667 20.3332 21.6667C15.3971 21.6667 10.9621 22.6323 7.91035 24.1667C5.27125 25.4935 3.6665 27.2458 3.6665 29.1667C3.6665 31.0875 5.27125 32.8398 7.91035 34.1667C10.9621 35.701 15.3971 36.6667 20.3332 36.6667C25.5108 36.6667 30.137 35.6042 33.194 33.9373Z" fill="#463C0B"/>
<path fill-rule="evenodd" clip-rule="evenodd" d="M8.6665 14.1911C8.6665 8.19449 13.8899 3.33333 20.3332 3.33333C26.7765 3.33333 31.9998 8.19449 31.9998 14.1911C31.9998 20.1407 28.2762 27.0832 22.4667 29.566C21.1123 30.1447 19.554 30.1447 18.1997 29.566C12.3901 27.0832 8.6665 20.1407 8.6665 14.1911ZM20.3332 18.3333C22.1742 18.3333 23.6665 16.841 23.6665 15C23.6665 13.159 22.1742 11.6667 20.3332 11.6667C18.4922 11.6667 16.9998 13.159 16.9998 15C16.9998 16.841 18.4922 18.3333 20.3332 18.3333Z" fill="#463C0B"/>
</svg>
