<svg width="61" height="60" viewBox="0 0 61 60" fill="none" xmlns="http://www.w3.org/2000/svg">
<path opacity="0.5" d="M55.6666 30C55.6666 43.807 44.4736 55 30.6666 55C16.8595 55 5.66663 43.807 5.66663 30C5.66663 16.1929 16.8595 5 30.6666 5C44.4736 5 55.6666 16.1929 55.6666 30Z" fill="#660044"/>
<path d="M42.6841 47.528C39.2661 49.876 35.1269 51.25 30.6666 51.25C26.2064 51.25 22.0672 49.8758 18.6491 47.5278C17.1395 46.4908 16.4944 44.5155 17.3721 42.908C19.1917 39.5755 22.941 37.5 30.6666 37.5C38.3924 37.5 42.1416 39.5758 43.9611 42.908C44.8389 44.5155 44.1936 46.491 42.6841 47.528Z" fill="#660044"/>
<path d="M30.6666 30C34.8089 30 38.1666 26.6423 38.1666 22.5C38.1666 18.3579 34.8089 15 30.6666 15C26.5246 15 23.1667 18.3579 23.1667 22.5C23.1667 26.6423 26.5246 30 30.6666 30Z" fill="#660044"/>
</svg>
