<svg width="38" height="34" viewBox="0 0 38 34" fill="none" xmlns="http://www.w3.org/2000/svg">
<path d="M2.33337 5.33162C2.33337 3.76027 2.33337 2.97461 2.82152 2.48644C3.30969 1.99829 4.09536 1.99829 5.66671 1.99829H32.3334C33.9047 1.99829 34.6904 1.99829 35.1785 2.48644C35.6667 2.97461 35.6667 3.76027 35.6667 5.33162C35.6667 6.90297 35.6667 7.68864 35.1785 8.17681C34.6904 8.66496 33.9047 8.66496 32.3334 8.66496H5.66671C4.09536 8.66496 3.30969 8.66496 2.82152 8.17681C2.33337 7.68864 2.33337 6.90297 2.33337 5.33162Z" fill="#0B1FD5"/>
<path opacity="0.5" fill-rule="evenodd" clip-rule="evenodd" d="M18.1667 32.0016H19.8334C26.1187 32.0016 29.2615 32.0016 31.214 30.049C33.1667 28.0965 33.1667 24.9538 33.1667 18.6683V8.66504C32.9247 8.66842 32.5849 8.66837 32.3334 8.66832H5.66671C5.41512 8.66837 5.07537 8.66842 4.83337 8.66504V18.6683C4.83337 24.9538 4.83337 28.0965 6.78599 30.049C8.73862 32.0016 11.8813 32.0016 18.1667 32.0016ZM24.0992 16.1675C24.5589 15.6525 24.5142 14.8623 23.9992 14.4026C23.4842 13.9428 22.694 13.9875 22.2344 14.5025L17.2144 20.1248L15.7659 18.5025C15.306 17.9875 14.5158 17.9428 14.0009 18.4026C13.4859 18.8623 13.4412 19.6525 13.901 20.1675L16.2819 22.8341C16.519 23.0998 16.8582 23.2516 17.2144 23.2516C17.5704 23.2516 17.9095 23.0998 18.1467 22.8341L24.0992 16.1675Z" fill="#0B1FD5"/>
</svg>
