<svg width="40" height="41" viewBox="0 0 40 41" fill="none" xmlns="http://www.w3.org/2000/svg">
<path d="M27.7187 8.0161C27.3163 7.98603 26.7975 7.98521 26.0147 7.98521H23.9683C23.2778 7.98521 22.7183 7.42557 22.7183 6.73521C22.7183 6.04486 23.2778 5.48521 23.9683 5.48521H26.0595C26.7857 5.4852 27.3985 5.48518 27.905 5.52305C28.4373 5.56283 28.9417 5.64896 29.4342 5.86731C30.1943 6.20435 30.8448 6.74798 31.3087 7.43741C31.61 7.88525 31.7803 8.36688 31.9082 8.88206C32.0297 9.37116 32.1307 9.96986 32.2498 10.6765L33.931 20.645C33.9922 21.0077 33.8905 21.379 33.653 21.6599C33.4155 21.9409 33.0663 22.1029 32.6983 22.1029C28.5532 22.1029 25.2183 25.4197 25.2183 29.4804C25.2183 30.1707 24.6587 30.7304 23.9683 30.7304H12.3667C11.8015 32.9904 9.73841 34.6519 7.30159 34.6519C4.43363 34.6519 2.08334 32.3504 2.08334 29.4804C2.08334 26.6102 4.43363 24.3087 7.30159 24.3087C9.73841 24.3087 11.8015 25.9702 12.3667 28.2304H22.7973C23.3578 23.8317 26.8377 20.3474 31.2377 19.708L29.7923 11.1375C29.6635 10.3737 29.5777 9.86988 29.482 9.48453C29.3902 9.11487 29.3095 8.9444 29.2345 8.83311C29.0352 8.53681 28.7537 8.30028 28.421 8.15278C28.2935 8.0963 28.1057 8.04501 27.7187 8.0161Z" fill="white"/>
<path opacity="0.5" fill-rule="evenodd" clip-rule="evenodd" d="M27.4805 29.48C27.4805 26.6099 29.8307 24.3084 32.6987 24.3084C35.5667 24.3084 37.917 26.6099 37.917 29.48C37.917 32.35 35.5667 34.6515 32.6987 34.6515C29.8307 34.6515 27.4805 32.35 27.4805 29.48Z" fill="white"/>
</svg>
