<svg width="40" height="41" viewBox="0 0 40 41" fill="none" xmlns="http://www.w3.org/2000/svg">
<path d="M35 6.7352C35 8.57615 33.5077 10.0685 31.6667 10.0685C29.8257 10.0685 28.3333 8.57615 28.3333 6.7352C28.3333 4.89425 29.8257 3.40187 31.6667 3.40187C33.5077 3.40187 35 4.89425 35 6.7352Z" fill="white"/>
<path fill-rule="evenodd" clip-rule="evenodd" d="M17.0167 10.1466C19.3398 8.69465 22.2265 8.47235 24.7445 9.55147C26.7138 10.3955 27.208 12.9616 25.693 14.4767L22.9363 17.2332C22.354 17.8157 22.3973 18.7725 23.0302 19.2999L24.6908 20.6837C25.6788 21.507 26.25 22.7267 26.25 24.0127V27.5686C26.25 28.2589 25.6903 28.8186 25 28.8186C24.3097 28.8186 23.75 28.2589 23.75 27.5686V24.0127C23.75 23.4685 23.5083 22.9525 23.0903 22.6044L21.4297 21.2204C19.6675 19.752 19.5467 17.0874 21.1687 15.4655L23.9253 12.7089C24.1897 12.4445 24.1033 11.9966 23.7597 11.8493C21.9943 11.0928 19.9703 11.2486 18.3417 12.2666L14.8292 14.4619C14.2437 14.8278 13.4726 14.6498 13.1067 14.0644C12.7408 13.479 12.9188 12.7078 13.5042 12.3419L17.0167 10.1466ZM4.1638 27.4727C4.67695 27.0109 5.4673 27.0525 5.92913 27.5657L6.94292 28.6921C7.97015 29.8336 9.43355 30.4852 10.9691 30.4852H29.031C30.5665 30.4852 32.0298 29.8336 33.0572 28.6921L34.0708 27.5657C34.5327 27.0525 35.323 27.0109 35.8362 27.4727C36.3493 27.9345 36.391 28.7249 35.9292 29.238L34.9153 30.3646C33.414 32.0327 31.2752 32.9852 29.031 32.9852H10.9691C8.72483 32.9852 6.58602 32.0327 5.08468 30.3646L4.0709 29.238C3.60907 28.7249 3.65067 27.9345 4.1638 27.4727Z" fill="white"/>
<g opacity="0.5">
<path d="M13.3333 35.0686C13.3333 35.9891 12.5871 36.7352 11.6667 36.7352C10.7462 36.7352 10 35.9891 10 35.0686C10 34.1481 10.7462 33.4019 11.6667 33.4019C12.5871 33.4019 13.3333 34.1481 13.3333 35.0686Z" fill="white"/>
<path d="M30 35.0686C30 35.9891 29.2538 36.7352 28.3333 36.7352C27.4128 36.7352 26.6667 35.9891 26.6667 35.0686C26.6667 34.1481 27.4128 33.4019 28.3333 33.4019C29.2538 33.4019 30 34.1481 30 35.0686Z" fill="white"/>
<path d="M27.5 15.4852C26.8097 15.4852 26.25 16.0449 26.25 16.7352C26.25 17.4255 26.8097 17.9852 27.5 17.9852H32.5C33.1903 17.9852 33.75 17.4255 33.75 16.7352C33.75 16.0449 33.1903 15.4852 32.5 15.4852H27.5Z" fill="white"/>
<path d="M19.2172 24.2857C19.7053 23.7975 19.7053 23.0062 19.2172 22.518C18.729 22.0299 17.9377 22.0299 17.4495 22.518L16.4139 23.5535C15.6192 24.3482 15.4524 24.4837 15.2761 24.5567C15.0998 24.6297 14.8861 24.6519 13.7623 24.6519H11.6667C10.9763 24.6519 10.4167 25.2115 10.4167 25.9019C10.4167 26.5922 10.9763 27.1519 11.6667 27.1519H13.7623L13.9358 27.152C14.7843 27.1534 15.5373 27.1545 16.2329 26.8664C16.9283 26.5784 17.46 26.045 18.0592 25.444L18.1817 25.3212L19.2172 24.2857Z" fill="white"/>
</g>
</svg>
