<svg width="40" height="41" viewBox="0 0 40 41" fill="none" xmlns="http://www.w3.org/2000/svg">
<path fill-rule="evenodd" clip-rule="evenodd" d="M10.6256 32.6889C9.8297 32.4044 9.17588 32.0062 8.6189 31.4492C6.99501 29.8254 6.72163 27.3784 6.6756 22.9852H33.3236C33.2776 27.3784 33.0041 29.8254 31.3803 31.4492C30.8235 32.006 30.1698 32.4042 29.374 32.6887L31.118 36.1765C31.4266 36.7939 31.1763 37.5447 30.559 37.8535C29.9415 38.1622 29.1906 37.912 28.8818 37.2945L26.842 33.2147C25.0946 33.4019 22.8763 33.4019 19.9996 33.4019C17.1233 33.4019 14.905 33.4019 13.1578 33.2147L11.1179 37.2945C10.8092 37.912 10.0583 38.1622 9.44086 37.8535C8.8234 37.5447 8.57311 36.7939 8.88185 36.1765L10.6256 32.6889ZM24.583 26.7352C24.583 26.0449 25.1426 25.4852 25.833 25.4852H28.333C29.0233 25.4852 29.583 26.0449 29.583 26.7352C29.583 27.4255 29.0233 27.9852 28.333 27.9852H25.833C25.1426 27.9852 24.583 27.4255 24.583 26.7352ZM11.6663 25.4852C10.9759 25.4852 10.4163 26.0449 10.4163 26.7352C10.4163 27.4255 10.9759 27.9852 11.6663 27.9852H14.1663C14.8566 27.9852 15.4163 27.4255 15.4163 26.7352C15.4163 26.0449 14.8566 25.4852 14.1663 25.4852H11.6663Z" fill="white"/>
<path opacity="0.5" d="M8.6193 5.35443C6.66669 7.30705 6.66669 10.4498 6.66669 16.7351V22.9852H33.3334V16.7351C33.3334 10.4498 33.3334 7.30705 31.3807 5.35443C29.9159 3.88962 27.7814 3.52367 24.1529 3.43225C23.7027 3.42092 23.3334 3.78483 23.3334 4.23513C23.3334 6.07608 21.841 7.56847 20 7.56847C18.159 7.56847 16.6667 6.07608 16.6667 4.23513C16.6667 3.78483 16.2974 3.42092 15.8473 3.43225C12.2187 3.52367 10.0841 3.88962 8.6193 5.35443Z" fill="white"/>
</svg>
