<svg width="40" height="41" viewBox="0 0 40 41" fill="none" xmlns="http://www.w3.org/2000/svg">
<path fill-rule="evenodd" clip-rule="evenodd" d="M18.2153 15.5139C18.5483 15.4958 18.8695 15.4852 19.1667 15.4852C20.0902 15.4852 21.0898 15.5878 21.9897 15.7171C24.5255 16.0813 26.4457 17.9527 27.213 20.2547C27.3868 20.776 27.914 21.0934 28.456 21.003L31.4612 20.5022C32.1422 20.3887 32.7862 20.8487 32.8997 21.5297C33.0132 22.2107 32.5532 22.8547 31.8722 22.9682L28.867 23.469C27.1115 23.7617 25.404 22.7335 24.8413 21.0452C24.3292 19.5089 23.1032 18.4027 21.6342 18.1917C21.1882 18.1275 20.734 18.0734 20.2928 18.0367L19.8408 22.5557C19.7008 23.9552 19.6845 24.3247 19.779 24.6549C19.8735 24.9849 20.0828 25.2899 20.942 26.4034L28.3237 35.9717C28.7453 36.5182 28.6442 37.3032 28.0975 37.7249C27.551 38.1465 26.766 38.0454 26.3443 37.4987L18.9625 27.9305C18.9227 27.8789 18.8833 27.8279 18.8443 27.7775C18.16 26.892 17.6185 26.1915 17.3755 25.3427C17.1327 24.4937 17.2215 23.6127 17.3338 22.4994C17.3403 22.436 17.3468 22.3719 17.3533 22.307L17.7767 18.0724C14.9879 18.5285 12.9167 21.1504 12.9167 24.2352C12.9167 24.9255 12.357 25.4852 11.6667 25.4852C10.9763 25.4852 10.4167 24.9255 10.4167 24.2352C10.4167 19.834 13.6063 15.7636 18.2153 15.5139Z" fill="white"/>
<g opacity="0.5">
<path d="M25 7.56854C25 9.86972 23.1345 11.7352 20.8333 11.7352C18.5322 11.7352 16.6667 9.86972 16.6667 7.56854C16.6667 5.26735 18.5322 3.40187 20.8333 3.40187C23.1345 3.40187 25 5.26735 25 7.56854Z" fill="white"/>
</g>
<g opacity="0.5">
<path d="M16.9118 28.0097C17.5888 28.145 18.0278 28.8037 17.8925 29.4805C17.2965 32.4602 15.669 35.1344 13.2962 37.0327L12.4476 37.7115C11.9085 38.1429 11.1219 38.0554 10.6906 37.5164C10.2594 36.9772 10.3468 36.1905 10.8858 35.7594L11.7344 35.0805C13.6479 33.5497 14.9604 31.3932 15.441 28.9904C15.5764 28.3134 16.2349 27.8744 16.9118 28.0097Z" fill="white"/>
</g>
</svg>
