<svg width="41" height="40" viewBox="0 0 41 40" fill="none" xmlns="http://www.w3.org/2000/svg">
<path opacity="0.5" d="M37 19.5C37 10.3873 29.6126 3 20.5 3C11.3873 3 4 10.3873 4 19.5C4 28.6126 11.3873 36 20.5 36C29.6126 36 37 28.6126 37 19.5Z" fill="#3D50F5"/>
<path d="M10.6151 22.3908C9.79498 23.2451 9.79498 24.6299 10.6151 25.4842C11.4352 26.3385 12.7648 26.3385 13.5849 25.4842L20.5 18.2812L27.4152 25.4842C28.2353 26.3385 29.5648 26.3385 30.3849 25.4842C31.205 24.6299 31.205 23.2451 30.3849 22.3908L21.9849 13.6407C21.1648 12.7864 19.8353 12.7864 19.0152 13.6407L10.6151 22.3908Z" fill="#0B1FD5"/>
</svg>
