<svg width="41" height="40" viewBox="0 0 41 40" fill="none" xmlns="http://www.w3.org/2000/svg">
<path d="M31.4723 27.9457C30.4118 28.1992 29.3048 28.3333 28.1666 28.3333C20.3426 28.3333 14 21.9907 14 14.1667C14 13.3609 14.0672 12.5708 14.1965 11.8018C14.1362 11.8598 14.0738 11.9132 14.0082 11.963C13.5405 12.3181 12.9581 12.4499 11.7931 12.7134L10.7325 12.9534C6.63307 13.8809 4.58334 14.3447 4.09567 15.9129C3.60801 17.4812 5.00539 19.1152 7.80014 22.3832L8.52317 23.2287C9.31734 24.1573 9.71444 24.6217 9.89307 25.1962C10.0717 25.7707 10.0117 26.3902 9.8916 27.6293L9.78231 28.7573C9.35977 33.1177 9.14851 35.2978 10.4252 36.267C11.7019 37.2362 13.6211 36.3527 17.4595 34.5853L18.4525 34.128C19.5431 33.6258 20.0885 33.3748 20.6666 33.3748C21.2448 33.3748 21.7901 33.6258 22.8808 34.128L23.8738 34.5853C27.7121 36.3527 29.6313 37.2362 30.9081 36.267C32.1848 35.2978 31.9735 33.1177 31.551 28.7573L31.4723 27.9457Z" fill="#660044"/>
<path opacity="0.5" d="M15.9217 9.01389L15.3755 9.99363C14.7756 11.0698 14.4756 11.6079 14.008 11.9629C14.0736 11.9131 14.1359 11.8597 14.1962 11.8017C14.067 12.5707 13.9997 13.3608 13.9997 14.1666C13.9997 21.9906 20.3423 28.3333 28.1665 28.3333C29.3046 28.3333 30.4115 28.1991 31.4721 27.9456L31.4415 27.6292C31.3213 26.3901 31.2613 25.7706 31.44 25.1961C31.6186 24.6216 32.0156 24.1572 32.8098 23.2286L33.533 22.3831C36.3276 19.1151 37.725 17.4809 37.2373 15.9128C36.7496 14.3446 34.7 13.8809 30.6005 12.9533L29.54 12.7133C28.375 12.4498 27.7925 12.318 27.3248 11.9629C26.8571 11.6079 26.5571 11.0698 25.9573 9.99365L25.4111 9.01387C23.3 5.22679 22.2445 3.33325 20.6665 3.33325C19.0883 3.33325 18.0328 5.2268 15.9217 9.01389Z" fill="#660044"/>
</svg>
