<svg width="109" height="109" viewBox="0 0 109 109" fill="none" xmlns="http://www.w3.org/2000/svg">
<rect x="7.5" y="7.5" width="94" height="94" stroke="white" stroke-width="15"/>
<path d="M102.188 17.0312V91.9688C102.188 95.7263 99.1325 98.7812 95.375 98.7812H13.625C9.86748 98.7812 6.8125 95.7263 6.8125 91.9688V17.0312C6.8125 13.2737 9.86748 10.2188 13.625 10.2188H95.375C99.1325 10.2188 102.188 13.2737 102.188 17.0312Z" fill="#050E61"/>
<path d="M74.9375 54.5C74.9375 34.4244 62.5366 17.2548 44.9838 10.2188H13.625C9.86748 10.2188 6.8125 13.2737 6.8125 17.0312V91.9688C6.8125 95.7263 9.86748 98.7812 13.625 98.7812H44.9838C62.5366 91.7452 74.9375 74.5756 74.9375 54.5Z" fill="#0B1FD5"/>
<path d="M10.8257 98.1745C11.6772 98.5577 12.6246 98.7812 13.6252 98.7812H95.3752C96.3758 98.7812 97.3231 98.5684 98.1747 98.1745L54.5002 54.5L10.8257 98.1745Z" fill="#3D50F5"/>
<path d="M74.7246 47.6663C74.7246 36.3831 65.5703 27.2288 54.2871 27.2288C43.0039 27.2288 33.8496 36.3831 33.8496 47.6663C33.8496 53.723 36.4788 59.1517 40.6621 62.8986L54.2871 76.5236L67.9121 62.8986C72.0954 59.1517 74.7246 53.7124 74.7246 47.6663ZM54.2871 54.4788C50.5296 54.4788 47.4746 51.4238 47.4746 47.6663C47.4746 43.9087 50.5296 40.8538 54.2871 40.8538C58.0446 40.8538 61.0996 43.9087 61.0996 47.6663C61.0996 51.4238 58.0446 54.4788 54.2871 54.4788Z" fill="#FF47C2"/>
</svg>
