<svg width="40" height="40" viewBox="0 0 40 40" fill="none" xmlns="http://www.w3.org/2000/svg">
<path opacity="0.5" d="M17.5619 36.124C19.1096 36.8475 20.8906 36.8475 22.4382 36.124C29.0779 33.0207 33.3334 24.3425 33.3334 16.9055C33.3334 9.4098 27.3639 3.33334 20.0001 3.33334C12.6363 3.33334 6.66675 9.4098 6.66675 16.9055C6.66675 24.3425 10.9223 33.0207 17.5619 36.124Z" fill="#660044"/>
<path fill-rule="evenodd" clip-rule="evenodd" d="M20 10.4167C16.5482 10.4167 13.75 13.2149 13.75 16.6667C13.75 20.1185 16.5482 22.9167 20 22.9167C21.2752 22.9167 22.4623 22.5338 23.451 21.878L24.9468 23.3822C25.4337 23.8717 26.2252 23.8738 26.7147 23.387C27.2042 22.9002 27.2063 22.1087 26.7195 21.6192L25.2173 20.1088C25.8695 19.1218 26.25 17.938 26.25 16.6667C26.25 13.2149 23.4518 10.4167 20 10.4167ZM20 12.9167C17.929 12.9167 16.25 14.5956 16.25 16.6667C16.25 18.7377 17.929 20.4167 20 20.4167C21.0382 20.4167 21.9757 19.9965 22.6562 19.3138C23.3335 18.6343 23.75 17.7003 23.75 16.6667C23.75 14.5956 22.071 12.9167 20 12.9167Z" fill="#660044"/>
</svg>
