<svg width="40" height="41" viewBox="0 0 40 41" fill="none" xmlns="http://www.w3.org/2000/svg">
<path opacity="0.5" d="M32.8608 34.4374C35.2383 33.1411 36.6666 31.4789 36.6666 29.6667C36.6666 27.7459 35.0619 25.9936 32.4228 24.6667C29.3709 23.1324 24.9361 22.1667 19.9999 22.1667C15.0638 22.1667 10.6289 23.1324 7.5771 24.6667C4.938 25.9936 3.33325 27.7459 3.33325 29.6667C3.33325 31.5876 4.938 33.3399 7.5771 34.6667C10.6289 36.2011 15.0638 37.1667 19.9999 37.1667C25.1776 37.1667 29.8038 36.1042 32.8608 34.4374Z" fill="#660044"/>
<path fill-rule="evenodd" clip-rule="evenodd" d="M8.33325 14.691C8.33325 8.69442 13.5566 3.83325 19.9999 3.83325C26.4433 3.83325 31.6666 8.69442 31.6666 14.691C31.6666 20.6406 27.9429 27.5831 22.1334 30.0659C20.7791 30.6446 19.2208 30.6446 17.8664 30.0659C12.0569 27.5831 8.33325 20.6406 8.33325 14.691ZM19.9999 18.8333C21.8409 18.8333 23.3333 17.3409 23.3333 15.4999C23.3333 13.659 21.8409 12.1666 19.9999 12.1666C18.1589 12.1666 16.6666 13.659 16.6666 15.4999C16.6666 17.3409 18.1589 18.8333 19.9999 18.8333Z" fill="#660044"/>
</svg>
