<svg width="41" height="40" viewBox="0 0 41 40" fill="none" xmlns="http://www.w3.org/2000/svg">
<path opacity="0.5" d="M36.9998 20C36.9998 10.7953 29.5378 3.33337 20.3332 3.33337C11.1284 3.33337 3.6665 10.7953 3.6665 20C3.6665 29.2047 11.1284 36.6667 20.3332 36.6667C29.5378 36.6667 36.9998 29.2047 36.9998 20Z" fill="#3D50F5"/>
<path d="M14.4494 21.6162C13.9612 22.1043 13.9612 22.8957 14.4494 23.3838C14.9375 23.872 15.729 23.872 16.2171 23.3838L20.3332 19.2678L24.4494 23.3838C24.9376 23.872 25.7289 23.872 26.2171 23.3838C26.7052 22.8957 26.7052 22.1043 26.2171 21.6162L21.2171 16.6161C20.7289 16.128 19.9376 16.128 19.4494 16.6161L14.4494 21.6162Z" fill="#0B1FD5"/>
</svg>
