<svg width="41" height="40" viewBox="0 0 41 40" fill="none" xmlns="http://www.w3.org/2000/svg">
<path d="M5.33325 10.6433C5.33325 9.83587 5.90889 9.18132 6.61897 9.18132L11.0594 9.18053C11.9416 9.1551 12.72 8.51721 13.0202 7.57353C13.0281 7.54871 13.0371 7.51812 13.0697 7.40707L13.261 6.75426C13.3781 6.35401 13.4801 6.0053 13.6228 5.69361C14.1867 4.46226 15.2301 3.6072 16.4357 3.38828C16.7409 3.33286 17.0641 3.3331 17.4351 3.33336H23.2318C23.6028 3.3331 23.9259 3.33286 24.2311 3.38828C25.4368 3.6072 26.4801 4.46226 27.0439 5.69361C27.1868 6.0053 27.2888 6.35401 27.4058 6.75426L27.5971 7.40707C27.6296 7.51812 27.6388 7.54871 27.6466 7.57353C27.9469 8.51721 28.8796 9.15588 29.7618 9.18132H34.0476C34.7576 9.18132 35.3333 9.83587 35.3333 10.6433C35.3333 11.4507 34.7576 12.1053 34.0476 12.1053H6.61897C5.90889 12.1053 5.33325 11.4507 5.33325 10.6433Z" fill="#660044"/>
<path fill-rule="evenodd" clip-rule="evenodd" d="M16.0422 19.1358C16.7292 19.0635 17.3417 19.5912 17.4103 20.3142L18.2437 29.0862C18.3123 29.8092 17.8112 30.454 17.1243 30.5263C16.4374 30.5987 15.8248 30.071 15.7561 29.348L14.9228 20.576C14.8541 19.853 15.3553 19.2082 16.0422 19.1358Z" fill="white"/>
<path fill-rule="evenodd" clip-rule="evenodd" d="M24.6243 19.1358C25.3111 19.2082 25.8123 19.853 25.7436 20.576L24.9103 29.348C24.8416 30.071 24.2291 30.5987 23.5421 30.5263C22.8553 30.454 22.3541 29.8092 22.4228 29.0862L23.2561 20.3142C23.3248 19.5912 23.9373 19.0635 24.6243 19.1358Z" fill="white"/>
<path opacity="0.5" d="M19.6592 36.6668H21.0072C25.645 36.6668 27.964 36.6668 29.4717 35.1903C30.9795 33.7138 31.1337 31.2918 31.4422 26.4477L31.8867 19.4678C32.0542 16.8395 32.1378 15.5254 31.3813 14.6926C30.625 13.8599 29.3477 13.8599 26.7932 13.8599H13.8733C11.3186 13.8599 10.0413 13.8599 9.28492 14.6926C8.52854 15.5254 8.61224 16.8395 8.77964 19.4678L9.22415 26.4477C9.53267 31.2918 9.68692 33.7138 11.1947 35.1903C12.7024 36.6668 15.0213 36.6668 19.6592 36.6668Z" fill="white"/>
</svg>
