<svg width="32" height="32" viewBox="0 0 32 32" fill="none" xmlns="http://www.w3.org/2000/svg">
<path fill-rule="evenodd" clip-rule="evenodd" d="M14.1177 5.64708C9.43965 5.64708 5.64708 9.43965 5.64708 14.1177C5.64708 18.7957 9.43965 22.5883 14.1177 22.5883C18.7957 22.5883 22.5883 18.7957 22.5883 14.1177C22.5883 9.43965 18.7957 5.64708 14.1177 5.64708ZM0 14.1177C0 6.32058 6.32058 0 14.1177 0C21.9148 0 28.2354 6.32058 28.2354 14.1177C28.2354 16.9951 27.3744 19.6714 25.8964 21.9031L31.173 27.1801C32.2757 28.2828 32.2757 30.0703 31.173 31.173C30.0703 32.2757 28.2828 32.2757 27.1801 31.173L21.9031 25.8964C19.6714 27.3744 16.9951 28.2354 14.1177 28.2354C6.32058 28.2354 0 21.9148 0 14.1177Z" fill="white"/>
</svg>
