<svg width="40" height="40" viewBox="0 0 40 40" fill="none" xmlns="http://www.w3.org/2000/svg">
<path fill-rule="evenodd" clip-rule="evenodd" d="M10.6256 32.6203C9.82964 32.3358 9.17582 31.9377 8.61884 31.3807C6.99495 29.7568 6.72157 27.3098 6.67554 22.9167H33.3236C33.2776 27.3098 33.0041 29.7568 31.3803 31.3807C30.8234 31.9375 30.1697 32.3357 29.3739 32.6202L31.1179 36.108C31.4266 36.7253 31.1763 37.4762 30.5589 37.785C29.9414 38.0937 29.1906 37.8435 28.8818 37.226L26.8419 33.1462C25.0946 33.3333 22.8763 33.3333 19.9996 33.3333C17.1233 33.3333 14.905 33.3333 13.1577 33.1462L11.1179 37.226C10.8091 37.8435 10.0583 38.0937 9.4408 37.785C8.82334 37.4762 8.57305 36.7253 8.88179 36.108L10.6256 32.6203ZM24.5829 26.6667C24.5829 25.9763 25.1426 25.4167 25.8329 25.4167H28.3329C29.0233 25.4167 29.5829 25.9763 29.5829 26.6667C29.5829 27.357 29.0233 27.9167 28.3329 27.9167H25.8329C25.1426 27.9167 24.5829 27.357 24.5829 26.6667ZM11.6662 25.4167C10.9759 25.4167 10.4162 25.9763 10.4162 26.6667C10.4162 27.357 10.9759 27.9167 11.6662 27.9167H14.1662C14.8566 27.9167 15.4162 27.357 15.4162 26.6667C15.4162 25.9763 14.8566 25.4167 14.1662 25.4167H11.6662Z" fill="white"/>
<path d="M8.61936 5.28588C6.66675 7.2385 6.66675 10.3812 6.66675 16.6666V22.9167H33.3334V16.6666C33.3334 10.3812 33.3334 7.2385 31.3807 5.28588C29.9159 3.82107 27.7814 3.45512 24.1529 3.3637C23.7027 3.35237 23.3334 3.71628 23.3334 4.16658C23.3334 6.00753 21.8411 7.49992 20.0001 7.49992C18.1591 7.49992 16.6667 6.00753 16.6667 4.16658C16.6667 3.71628 16.2975 3.35237 15.8473 3.3637C12.2187 3.45512 10.0842 3.82107 8.61936 5.28588Z" fill="white"/>
</svg>
