<svg width="40" height="40" viewBox="0 0 40 40" fill="none" xmlns="http://www.w3.org/2000/svg">
<path d="M26.6664 6.66667C26.6664 8.50762 25.1741 10 23.3331 10C21.4921 10 19.9998 8.50762 19.9998 6.66667C19.9998 4.82572 21.4921 3.33333 23.3331 3.33333C25.1741 3.33333 26.6664 4.82572 26.6664 6.66667Z" fill="white"/>
<path fill-rule="evenodd" clip-rule="evenodd" d="M18.1982 14.1766C16.6873 12.9739 14.4596 13.4035 13.5044 15.0818C12.5797 16.7063 13.2671 18.774 14.9804 19.5217L20.1315 21.7693C22.3485 22.7368 23.3688 25.3122 22.416 27.5355L21.1488 30.4923C20.8768 31.127 20.142 31.4208 19.5075 31.149C18.8728 30.877 18.579 30.1422 18.8508 29.5077L20.1182 26.5507C20.5297 25.5907 20.089 24.4785 19.1317 24.0607L13.9805 21.813C10.9059 20.4713 9.67227 16.7607 11.3317 13.8451C13.0459 10.8333 17.0438 10.0623 19.7552 12.2207L23.3523 15.0843C23.6227 15.2995 23.958 15.4167 24.3037 15.4167H30.8332C31.5235 15.4167 32.0832 15.9763 32.0832 16.6667C32.0832 17.357 31.5235 17.9167 30.8332 17.9167H24.3037C23.3925 17.9167 22.5082 17.6077 21.7953 17.0402L18.1982 14.1766Z" fill="white"/>
<path fill-rule="evenodd" clip-rule="evenodd" d="M30 23.75C26.5482 23.75 23.75 26.5482 23.75 30C23.75 33.4518 26.5482 36.25 30 36.25C33.4518 36.25 36.25 33.4518 36.25 30C36.25 26.5482 33.4518 23.75 30 23.75ZM30 26.25C27.929 26.25 26.25 27.929 26.25 30C26.25 32.071 27.929 33.75 30 33.75C32.071 33.75 33.75 32.071 33.75 30C33.75 27.929 32.071 26.25 30 26.25Z" fill="white"/>
<path fill-rule="evenodd" clip-rule="evenodd" d="M10 23.75C6.54822 23.75 3.75 26.5482 3.75 30C3.75 33.4518 6.54822 36.25 10 36.25C13.4518 36.25 16.25 33.4518 16.25 30C16.25 26.5482 13.4518 23.75 10 23.75ZM10 26.25C7.92893 26.25 6.25 27.929 6.25 30C6.25 32.071 7.92893 33.75 10 33.75C12.0711 33.75 13.75 32.071 13.75 30C13.75 27.929 12.0711 26.25 10 26.25Z" fill="white"/>
</svg>
