<svg width="40" height="40" viewBox="0 0 40 40" fill="none" xmlns="http://www.w3.org/2000/svg">
<g clip-path="url(#clip0_1654_292)">
<path d="M39.0617 13.75H34.3843L33.0843 10.5C31.7484 7.15859 28.5601 5 24.9609 5H15.039C11.4406 5 8.25152 7.15859 6.9148 10.5L5.6148 13.75H0.938241C0.328085 13.75 -0.119571 14.3234 0.0288663 14.9148L0.497616 16.7898C0.601523 17.207 0.976522 17.5 1.40699 17.5H2.97496C1.92574 18.4164 1.24996 19.7484 1.24996 21.25V25C1.24996 26.2594 1.73121 27.3961 2.49996 28.2758V32.5C2.49996 33.8805 3.61949 35 4.99996 35H7.49996C8.88043 35 9.99996 33.8805 9.99996 32.5V30H30V32.5C30 33.8805 31.1195 35 32.5 35H35C36.3804 35 37.5 33.8805 37.5 32.5V28.2758C38.2687 27.3969 38.75 26.2602 38.75 25V21.25C38.75 19.7484 38.0742 18.4164 37.0257 17.5H38.5937C39.0242 17.5 39.3992 17.207 39.5031 16.7898L39.9718 14.9148C40.1195 14.3234 39.6718 13.75 39.0617 13.75ZM11.557 12.357C12.1265 10.9336 13.5054 10 15.039 10H24.9609C26.4945 10 27.8734 10.9336 28.4429 12.357L30 16.25H9.99996L11.557 12.357ZM7.49996 24.9844C5.99996 24.9844 4.99996 23.9875 4.99996 22.4922C4.99996 20.9969 5.99996 20 7.49996 20C8.99996 20 11.25 22.243 11.25 23.7383C11.25 25.2336 8.99996 24.9844 7.49996 24.9844ZM32.5 24.9844C31 24.9844 28.75 25.2336 28.75 23.7383C28.75 22.243 31 20 32.5 20C34 20 35 20.9969 35 22.4922C35 23.9875 34 24.9844 32.5 24.9844Z" fill="white"/>
</g>
<defs>
<clipPath id="clip0_1654_292">
<rect width="40" height="40" fill="white"/>
</clipPath>
</defs>
</svg>
