<svg width="40" height="40" viewBox="0 0 40 40" fill="none" xmlns="http://www.w3.org/2000/svg">
<path d="M33.75 23.75C33.75 23 34.25 22.5 35 22.5H39.5C38.5 20.25 36.375 18.75 33.75 18.75H30.625L26.25 13.5C25 12.125 23.25 11.25 21.375 11.25H11.875C9.5 11.25 7.375 12.625 6.25 14.75L4.25 18.75H3.75C1.625 18.75 0 20.375 0 22.5V27.5C0 28.875 1.125 30 2.5 30H3.875C4.375 32.125 6.375 33.75 8.75 33.75C11.125 33.75 13 32.125 13.625 30H24C24.5 32.125 26.5 33.75 28.875 33.75C31.25 33.75 33.125 32.125 33.75 30H37.5C38.875 30 40 28.875 40 27.5V25H35C34.25 25 33.75 24.5 33.75 23.75ZM8.75 31.25C7.375 31.25 6.25 30.125 6.25 28.75C6.25 27.375 7.375 26.25 8.75 26.25C10.125 26.25 11.25 27.375 11.25 28.75C11.25 30.125 10.125 31.25 8.75 31.25ZM11.75 18.75H7L8.5 15.875C9.125 14.625 10.375 13.75 11.875 13.75H14.25L11.75 18.75ZM14.5 18.75L17 13.75H21.375C22.5 13.75 23.5 14.25 24.25 15.125L27.25 18.75H14.5ZM28.75 31.25C27.375 31.25 26.25 30.125 26.25 28.75C26.25 27.375 27.375 26.25 28.75 26.25C30.125 26.25 31.25 27.375 31.25 28.75C31.25 30.125 30.125 31.25 28.75 31.25Z" fill="white"/>
</svg>
