<svg width="40" height="40" viewBox="0 0 40 40" fill="none" xmlns="http://www.w3.org/2000/svg">
<path fill-rule="evenodd" clip-rule="evenodd" d="M18.2154 15.4453C18.5484 15.4273 18.8696 15.4167 19.1667 15.4167C20.0902 15.4167 21.0899 15.5193 21.9897 15.6485C24.5256 16.0128 26.4457 17.8842 27.2131 20.1862C27.3869 20.7075 27.9141 21.0248 28.4561 20.9345L31.4612 20.4337C32.1422 20.3202 32.7862 20.7802 32.8997 21.4612C33.0132 22.1422 32.5532 22.7862 31.8722 22.8997L28.8671 23.4005C27.1116 23.6932 25.4041 22.665 24.8414 20.9767C24.3292 19.4403 23.1032 18.3342 21.6342 18.1232C21.1882 18.059 20.7341 18.0048 20.2929 17.9682L19.8409 22.4872C19.7009 23.8867 19.6846 24.2562 19.7791 24.5863C19.8736 24.9163 20.0829 25.2213 20.9421 26.3348L28.3237 35.9032C28.7454 36.4497 28.6442 37.2347 28.0976 37.6563C27.5511 38.078 26.7661 37.9768 26.3444 37.4302L18.9626 27.862C18.9227 27.8103 18.8834 27.7593 18.8444 27.709C18.1601 26.8235 17.6186 26.123 17.3756 25.2742C17.1327 24.4252 17.2216 23.5442 17.3339 22.4308C17.3404 22.3675 17.3469 22.3033 17.3534 22.2385L17.7767 18.0038C14.9879 18.46 12.9167 21.0818 12.9167 24.1667C12.9167 24.857 12.3571 25.4167 11.6667 25.4167C10.9764 25.4167 10.4167 24.857 10.4167 24.1667C10.4167 19.7655 13.6064 15.6951 18.2154 15.4453Z" fill="white"/>
<path d="M25.0001 7.5C25.0001 9.80118 23.1346 11.6667 20.8334 11.6667C18.5322 11.6667 16.6667 9.80118 16.6667 7.5C16.6667 5.19882 18.5322 3.33333 20.8334 3.33333C23.1346 3.33333 25.0001 5.19882 25.0001 7.5Z" fill="white"/>
<path d="M16.9119 27.9412C17.5889 28.0765 18.0279 28.7352 17.8926 29.412C17.2966 32.3917 15.6691 35.0658 13.2963 36.9642L12.4477 37.643C11.9086 38.0743 11.122 37.9868 10.6907 37.4478C10.2594 36.9087 10.3468 36.122 10.8859 35.6908L11.7345 35.012C13.648 33.4812 14.9605 31.3247 15.4411 28.9218C15.5765 28.2448 16.235 27.8058 16.9119 27.9412Z" fill="white"/>
</svg>
